<mxfile host="Electron" agent="Mozilla/5.0 (X11; Linux x86_64) AppleWebKit/537.36 (KHTML, like Gecko) draw.io/24.7.17 Chrome/128.0.6613.36 Electron/32.0.1 Safari/537.36" version="24.7.17">
  <diagram name="Page-1" id="L-YIkr6LUHLMMzT8zC4r">
    <mxGraphModel dx="1343" dy="1461" grid="0" gridSize="10" guides="1" tooltips="1" connect="1" arrows="1" fold="1" page="0" pageScale="1" pageWidth="850" pageHeight="1100" math="0" shadow="0">
      <root>
        <mxCell id="0" />
        <mxCell id="1" parent="0" />
        <mxCell id="4hKXPCZT20WKyfrfMZu--20" value="" style="group" parent="1" vertex="1" connectable="0">
          <mxGeometry x="90" y="-750" width="240" height="130" as="geometry" />
        </mxCell>
        <mxCell id="4hKXPCZT20WKyfrfMZu--59" style="edgeStyle=orthogonalEdgeStyle;rounded=0;orthogonalLoop=1;jettySize=auto;html=1;exitX=0.5;exitY=1;exitDx=0;exitDy=0;strokeColor=none;" parent="4hKXPCZT20WKyfrfMZu--20" source="4hKXPCZT20WKyfrfMZu--12" edge="1">
          <mxGeometry relative="1" as="geometry">
            <mxPoint x="250" y="330" as="targetPoint" />
          </mxGeometry>
        </mxCell>
        <mxCell id="4hKXPCZT20WKyfrfMZu--12" value="&lt;font style=&quot;font-size: 18px;&quot;&gt;Catalog&lt;/font&gt;" style="whiteSpace=wrap;html=1;" parent="4hKXPCZT20WKyfrfMZu--20" vertex="1">
          <mxGeometry x="50" y="70" width="120" height="60" as="geometry" />
        </mxCell>
        <mxCell id="4hKXPCZT20WKyfrfMZu--13" value="&lt;u&gt;catalog_id&lt;/u&gt;" style="ellipse;whiteSpace=wrap;html=1;" parent="4hKXPCZT20WKyfrfMZu--20" vertex="1">
          <mxGeometry width="80" height="40" as="geometry" />
        </mxCell>
        <mxCell id="4hKXPCZT20WKyfrfMZu--14" value="name" style="ellipse;whiteSpace=wrap;html=1;" parent="4hKXPCZT20WKyfrfMZu--20" vertex="1">
          <mxGeometry x="160" width="80" height="40" as="geometry" />
        </mxCell>
        <mxCell id="4hKXPCZT20WKyfrfMZu--15" value="location" style="ellipse;whiteSpace=wrap;html=1;" parent="4hKXPCZT20WKyfrfMZu--20" vertex="1">
          <mxGeometry x="80" width="80" height="40" as="geometry" />
        </mxCell>
        <mxCell id="4hKXPCZT20WKyfrfMZu--16" value="" style="endArrow=none;html=1;rounded=0;entryX=0.25;entryY=0;entryDx=0;entryDy=0;exitX=0.5;exitY=1;exitDx=0;exitDy=0;" parent="4hKXPCZT20WKyfrfMZu--20" source="4hKXPCZT20WKyfrfMZu--13" target="4hKXPCZT20WKyfrfMZu--12" edge="1">
          <mxGeometry width="50" height="50" relative="1" as="geometry">
            <mxPoint x="290" y="370" as="sourcePoint" />
            <mxPoint x="340" y="320" as="targetPoint" />
          </mxGeometry>
        </mxCell>
        <mxCell id="4hKXPCZT20WKyfrfMZu--17" value="" style="endArrow=none;html=1;rounded=0;entryX=0.75;entryY=0;entryDx=0;entryDy=0;exitX=0.5;exitY=1;exitDx=0;exitDy=0;" parent="4hKXPCZT20WKyfrfMZu--20" source="4hKXPCZT20WKyfrfMZu--14" target="4hKXPCZT20WKyfrfMZu--12" edge="1">
          <mxGeometry width="50" height="50" relative="1" as="geometry">
            <mxPoint x="340" y="100" as="sourcePoint" />
            <mxPoint x="400" y="60" as="targetPoint" />
          </mxGeometry>
        </mxCell>
        <mxCell id="4hKXPCZT20WKyfrfMZu--18" value="" style="endArrow=none;html=1;rounded=0;entryX=0.5;entryY=1;entryDx=0;entryDy=0;exitX=0.5;exitY=0;exitDx=0;exitDy=0;" parent="4hKXPCZT20WKyfrfMZu--20" source="4hKXPCZT20WKyfrfMZu--12" target="4hKXPCZT20WKyfrfMZu--15" edge="1">
          <mxGeometry width="50" height="50" relative="1" as="geometry">
            <mxPoint x="290" y="370" as="sourcePoint" />
            <mxPoint x="340" y="320" as="targetPoint" />
          </mxGeometry>
        </mxCell>
        <mxCell id="4hKXPCZT20WKyfrfMZu--21" value="" style="group" parent="1" vertex="1" connectable="0">
          <mxGeometry x="-160" y="-750" width="240" height="130" as="geometry" />
        </mxCell>
        <mxCell id="Genre" value="&lt;font style=&quot;font-size: 18px;&quot;&gt;Genre&lt;/font&gt;" style="whiteSpace=wrap;html=1;" parent="4hKXPCZT20WKyfrfMZu--21" vertex="1">
          <mxGeometry x="50" y="70" width="120" height="60" as="geometry" />
        </mxCell>
        <mxCell id="genre_id_genre" value="&lt;u&gt;genre_id&lt;/u&gt;" style="ellipse;whiteSpace=wrap;html=1;" parent="4hKXPCZT20WKyfrfMZu--21" vertex="1">
          <mxGeometry width="80" height="40" as="geometry" />
        </mxCell>
        <mxCell id="name_genre" value="name" style="ellipse;whiteSpace=wrap;html=1;" parent="4hKXPCZT20WKyfrfMZu--21" vertex="1">
          <mxGeometry x="160" width="80" height="40" as="geometry" />
        </mxCell>
        <mxCell id="description_genre" value="description" style="ellipse;whiteSpace=wrap;html=1;" parent="4hKXPCZT20WKyfrfMZu--21" vertex="1">
          <mxGeometry x="80" width="80" height="40" as="geometry" />
        </mxCell>
        <mxCell id="9vry_f9opfhHnE125gh5-4" value="" style="endArrow=none;html=1;rounded=0;entryX=0.25;entryY=0;entryDx=0;entryDy=0;exitX=0.5;exitY=1;exitDx=0;exitDy=0;" parent="4hKXPCZT20WKyfrfMZu--21" source="genre_id_genre" target="Genre" edge="1">
          <mxGeometry width="50" height="50" relative="1" as="geometry">
            <mxPoint x="290" y="370" as="sourcePoint" />
            <mxPoint x="340" y="320" as="targetPoint" />
          </mxGeometry>
        </mxCell>
        <mxCell id="9vry_f9opfhHnE125gh5-5" value="" style="endArrow=none;html=1;rounded=0;entryX=0.75;entryY=0;entryDx=0;entryDy=0;exitX=0.5;exitY=1;exitDx=0;exitDy=0;" parent="4hKXPCZT20WKyfrfMZu--21" source="name_genre" target="Genre" edge="1">
          <mxGeometry width="50" height="50" relative="1" as="geometry">
            <mxPoint x="340" y="100" as="sourcePoint" />
            <mxPoint x="400" y="60" as="targetPoint" />
          </mxGeometry>
        </mxCell>
        <mxCell id="9vry_f9opfhHnE125gh5-6" value="" style="endArrow=none;html=1;rounded=0;entryX=0.5;entryY=1;entryDx=0;entryDy=0;exitX=0.5;exitY=0;exitDx=0;exitDy=0;" parent="4hKXPCZT20WKyfrfMZu--21" source="Genre" target="description_genre" edge="1">
          <mxGeometry width="50" height="50" relative="1" as="geometry">
            <mxPoint x="290" y="370" as="sourcePoint" />
            <mxPoint x="340" y="320" as="targetPoint" />
          </mxGeometry>
        </mxCell>
        <mxCell id="4hKXPCZT20WKyfrfMZu--30" value="" style="group" parent="1" vertex="1" connectable="0">
          <mxGeometry x="775" y="-547.5" width="330" height="140" as="geometry" />
        </mxCell>
        <mxCell id="Author" value="&lt;font style=&quot;font-size: 18px;&quot;&gt;Author&lt;/font&gt;" style="whiteSpace=wrap;html=1;" parent="4hKXPCZT20WKyfrfMZu--30" vertex="1">
          <mxGeometry x="120" width="120" height="60" as="geometry" />
        </mxCell>
        <mxCell id="author_id_author" value="&lt;u&gt;author_id&lt;/u&gt;" style="ellipse;whiteSpace=wrap;html=1;" parent="4hKXPCZT20WKyfrfMZu--30" vertex="1">
          <mxGeometry x="170" y="100" width="80" height="40" as="geometry" />
        </mxCell>
        <mxCell id="name_author" value="name" style="ellipse;whiteSpace=wrap;html=1;" parent="4hKXPCZT20WKyfrfMZu--30" vertex="1">
          <mxGeometry y="100" width="80" height="40" as="geometry" />
        </mxCell>
        <mxCell id="birth_date_author" value="birth_date" style="ellipse;whiteSpace=wrap;html=1;" parent="4hKXPCZT20WKyfrfMZu--30" vertex="1">
          <mxGeometry x="90" y="100" width="80" height="40" as="geometry" />
        </mxCell>
        <mxCell id="nationality_author" value="nationality" style="ellipse;whiteSpace=wrap;html=1;" parent="4hKXPCZT20WKyfrfMZu--30" vertex="1">
          <mxGeometry x="250" y="100" width="80" height="40" as="geometry" />
        </mxCell>
        <mxCell id="4hKXPCZT20WKyfrfMZu--26" value="" style="endArrow=none;html=1;rounded=0;entryX=0;entryY=1;entryDx=0;entryDy=0;exitX=0.5;exitY=0;exitDx=0;exitDy=0;" parent="4hKXPCZT20WKyfrfMZu--30" source="name_author" target="Author" edge="1">
          <mxGeometry width="50" height="50" relative="1" as="geometry">
            <mxPoint x="490" y="110" as="sourcePoint" />
            <mxPoint x="540" y="60" as="targetPoint" />
          </mxGeometry>
        </mxCell>
        <mxCell id="4hKXPCZT20WKyfrfMZu--27" value="" style="endArrow=none;html=1;rounded=0;entryX=0.25;entryY=1;entryDx=0;entryDy=0;exitX=0.5;exitY=0;exitDx=0;exitDy=0;" parent="4hKXPCZT20WKyfrfMZu--30" source="birth_date_author" target="Author" edge="1">
          <mxGeometry width="50" height="50" relative="1" as="geometry">
            <mxPoint x="490" y="110" as="sourcePoint" />
            <mxPoint x="540" y="60" as="targetPoint" />
          </mxGeometry>
        </mxCell>
        <mxCell id="4hKXPCZT20WKyfrfMZu--28" value="" style="endArrow=none;html=1;rounded=0;entryX=0.5;entryY=1;entryDx=0;entryDy=0;exitX=0.5;exitY=0;exitDx=0;exitDy=0;" parent="4hKXPCZT20WKyfrfMZu--30" source="author_id_author" target="Author" edge="1">
          <mxGeometry width="50" height="50" relative="1" as="geometry">
            <mxPoint x="490" y="110" as="sourcePoint" />
            <mxPoint x="540" y="60" as="targetPoint" />
          </mxGeometry>
        </mxCell>
        <mxCell id="4hKXPCZT20WKyfrfMZu--29" value="" style="endArrow=none;html=1;rounded=0;entryX=0.75;entryY=1;entryDx=0;entryDy=0;exitX=0.5;exitY=0;exitDx=0;exitDy=0;" parent="4hKXPCZT20WKyfrfMZu--30" source="nationality_author" target="Author" edge="1">
          <mxGeometry width="50" height="50" relative="1" as="geometry">
            <mxPoint x="490" y="110" as="sourcePoint" />
            <mxPoint x="540" y="60" as="targetPoint" />
          </mxGeometry>
        </mxCell>
        <mxCell id="4hKXPCZT20WKyfrfMZu--35" value="" style="group" parent="1" vertex="1" connectable="0">
          <mxGeometry x="750" y="-160" width="320" height="150" as="geometry" />
        </mxCell>
        <mxCell id="Member" value="&lt;font style=&quot;font-size: 18px;&quot;&gt;Member&lt;/font&gt;" style="whiteSpace=wrap;html=1;" parent="4hKXPCZT20WKyfrfMZu--35" vertex="1">
          <mxGeometry x="90" width="120" height="60" as="geometry" />
        </mxCell>
        <mxCell id="member_id_member" value="&lt;u&gt;member_id&lt;/u&gt;" style="ellipse;whiteSpace=wrap;html=1;" parent="4hKXPCZT20WKyfrfMZu--35" vertex="1">
          <mxGeometry x="160" y="110" width="80" height="40" as="geometry" />
        </mxCell>
        <mxCell id="name_member" value="name" style="ellipse;whiteSpace=wrap;html=1;" parent="4hKXPCZT20WKyfrfMZu--35" vertex="1">
          <mxGeometry x="240" y="70" width="80" height="40" as="geometry" />
        </mxCell>
        <mxCell id="contact_info_member" value="contact_info" style="ellipse;whiteSpace=wrap;html=1;" parent="4hKXPCZT20WKyfrfMZu--35" vertex="1">
          <mxGeometry y="70" width="80" height="40" as="geometry" />
        </mxCell>
        <mxCell id="join_date_member" value="join_date" style="ellipse;whiteSpace=wrap;html=1;" parent="4hKXPCZT20WKyfrfMZu--35" vertex="1">
          <mxGeometry x="70" y="110" width="80" height="40" as="geometry" />
        </mxCell>
        <mxCell id="4hKXPCZT20WKyfrfMZu--31" value="" style="endArrow=none;html=1;rounded=0;entryX=0;entryY=1;entryDx=0;entryDy=0;exitX=1;exitY=0;exitDx=0;exitDy=0;" parent="4hKXPCZT20WKyfrfMZu--35" source="contact_info_member" target="Member" edge="1">
          <mxGeometry width="50" height="50" relative="1" as="geometry">
            <mxPoint x="130" y="90" as="sourcePoint" />
            <mxPoint x="180" y="40" as="targetPoint" />
          </mxGeometry>
        </mxCell>
        <mxCell id="4hKXPCZT20WKyfrfMZu--32" value="" style="endArrow=none;html=1;rounded=0;entryX=0.25;entryY=1;entryDx=0;entryDy=0;exitX=0.5;exitY=0;exitDx=0;exitDy=0;" parent="4hKXPCZT20WKyfrfMZu--35" source="join_date_member" target="Member" edge="1">
          <mxGeometry width="50" height="50" relative="1" as="geometry">
            <mxPoint x="130" y="90" as="sourcePoint" />
            <mxPoint x="180" y="40" as="targetPoint" />
          </mxGeometry>
        </mxCell>
        <mxCell id="4hKXPCZT20WKyfrfMZu--33" value="" style="endArrow=none;html=1;rounded=0;entryX=0.75;entryY=1;entryDx=0;entryDy=0;exitX=0.5;exitY=0;exitDx=0;exitDy=0;" parent="4hKXPCZT20WKyfrfMZu--35" source="member_id_member" target="Member" edge="1">
          <mxGeometry width="50" height="50" relative="1" as="geometry">
            <mxPoint x="130" y="90" as="sourcePoint" />
            <mxPoint x="180" y="40" as="targetPoint" />
          </mxGeometry>
        </mxCell>
        <mxCell id="4hKXPCZT20WKyfrfMZu--34" value="" style="endArrow=none;html=1;rounded=0;entryX=1;entryY=1;entryDx=0;entryDy=0;exitX=0;exitY=0.5;exitDx=0;exitDy=0;" parent="4hKXPCZT20WKyfrfMZu--35" source="name_member" target="Member" edge="1">
          <mxGeometry width="50" height="50" relative="1" as="geometry">
            <mxPoint x="130" y="90" as="sourcePoint" />
            <mxPoint x="180" y="40" as="targetPoint" />
          </mxGeometry>
        </mxCell>
        <mxCell id="8_e8Rs1IxtEM6W6Zb1K5-31" value="&lt;font style=&quot;font-size: 18px;&quot;&gt;(0,N)&lt;/font&gt;" style="text;html=1;align=center;verticalAlign=middle;whiteSpace=wrap;rounded=0;" parent="4hKXPCZT20WKyfrfMZu--35" vertex="1">
          <mxGeometry x="-30" width="60" height="30" as="geometry" />
        </mxCell>
        <mxCell id="C0MeX4ida6ETy6lf75hu-17" value="&lt;font style=&quot;font-size: 18px;&quot;&gt;(1,1)&lt;/font&gt;" style="text;html=1;align=center;verticalAlign=middle;whiteSpace=wrap;rounded=0;" vertex="1" parent="4hKXPCZT20WKyfrfMZu--35">
          <mxGeometry x="240" y="-15" width="60" height="30" as="geometry" />
        </mxCell>
        <mxCell id="4hKXPCZT20WKyfrfMZu--41" value="" style="group" parent="1" vertex="1" connectable="0">
          <mxGeometry x="720" y="-340" width="350" height="140" as="geometry" />
        </mxCell>
        <mxCell id="Staff" value="&lt;font style=&quot;font-size: 18px;&quot;&gt;Staff&lt;/font&gt;" style="whiteSpace=wrap;html=1;" parent="4hKXPCZT20WKyfrfMZu--41" vertex="1">
          <mxGeometry x="120" width="120" height="60" as="geometry" />
        </mxCell>
        <mxCell id="staff_id_staff" value="&lt;u&gt;staff_id&lt;/u&gt;" style="ellipse;whiteSpace=wrap;html=1;" parent="4hKXPCZT20WKyfrfMZu--41" vertex="1">
          <mxGeometry y="50" width="80" height="40" as="geometry" />
        </mxCell>
        <mxCell id="name_staff" value="name" style="ellipse;whiteSpace=wrap;html=1;" parent="4hKXPCZT20WKyfrfMZu--41" vertex="1">
          <mxGeometry x="120" y="100" width="80" height="40" as="geometry" />
        </mxCell>
        <mxCell id="contact_info_staff" value="contact_info" style="ellipse;whiteSpace=wrap;html=1;" parent="4hKXPCZT20WKyfrfMZu--41" vertex="1">
          <mxGeometry x="200" y="100" width="80" height="40" as="geometry" />
        </mxCell>
        <mxCell id="job_title_staff" value="job_title" style="ellipse;whiteSpace=wrap;html=1;" parent="4hKXPCZT20WKyfrfMZu--41" vertex="1">
          <mxGeometry x="270" y="65" width="80" height="40" as="geometry" />
        </mxCell>
        <mxCell id="hire_date_staff" value="hire_date" style="ellipse;whiteSpace=wrap;html=1;" parent="4hKXPCZT20WKyfrfMZu--41" vertex="1">
          <mxGeometry x="40" y="100" width="80" height="40" as="geometry" />
        </mxCell>
        <mxCell id="4hKXPCZT20WKyfrfMZu--36" value="" style="endArrow=none;html=1;rounded=0;entryX=0;entryY=0.75;entryDx=0;entryDy=0;exitX=1;exitY=0.5;exitDx=0;exitDy=0;" parent="4hKXPCZT20WKyfrfMZu--41" source="staff_id_staff" target="Staff" edge="1">
          <mxGeometry width="50" height="50" relative="1" as="geometry">
            <mxPoint x="530" y="-100" as="sourcePoint" />
            <mxPoint x="580" y="-150" as="targetPoint" />
          </mxGeometry>
        </mxCell>
        <mxCell id="4hKXPCZT20WKyfrfMZu--37" value="" style="endArrow=none;html=1;rounded=0;entryX=0;entryY=1;entryDx=0;entryDy=0;exitX=0.5;exitY=0;exitDx=0;exitDy=0;" parent="4hKXPCZT20WKyfrfMZu--41" source="hire_date_staff" target="Staff" edge="1">
          <mxGeometry width="50" height="50" relative="1" as="geometry">
            <mxPoint x="530" y="-100" as="sourcePoint" />
            <mxPoint x="580" y="-150" as="targetPoint" />
          </mxGeometry>
        </mxCell>
        <mxCell id="4hKXPCZT20WKyfrfMZu--38" value="" style="endArrow=none;html=1;rounded=0;entryX=0.25;entryY=1;entryDx=0;entryDy=0;exitX=0.5;exitY=0;exitDx=0;exitDy=0;" parent="4hKXPCZT20WKyfrfMZu--41" source="name_staff" target="Staff" edge="1">
          <mxGeometry width="50" height="50" relative="1" as="geometry">
            <mxPoint x="530" y="-100" as="sourcePoint" />
            <mxPoint x="580" y="-150" as="targetPoint" />
          </mxGeometry>
        </mxCell>
        <mxCell id="4hKXPCZT20WKyfrfMZu--39" value="" style="endArrow=none;html=1;rounded=0;entryX=0.5;entryY=1;entryDx=0;entryDy=0;exitX=0.5;exitY=0;exitDx=0;exitDy=0;" parent="4hKXPCZT20WKyfrfMZu--41" source="contact_info_staff" target="Staff" edge="1">
          <mxGeometry width="50" height="50" relative="1" as="geometry">
            <mxPoint x="530" y="-100" as="sourcePoint" />
            <mxPoint x="580" y="-150" as="targetPoint" />
          </mxGeometry>
        </mxCell>
        <mxCell id="4hKXPCZT20WKyfrfMZu--40" value="" style="endArrow=none;html=1;rounded=0;entryX=1;entryY=1;entryDx=0;entryDy=0;exitX=0;exitY=0.5;exitDx=0;exitDy=0;" parent="4hKXPCZT20WKyfrfMZu--41" source="job_title_staff" target="Staff" edge="1">
          <mxGeometry width="50" height="50" relative="1" as="geometry">
            <mxPoint x="530" y="-100" as="sourcePoint" />
            <mxPoint x="580" y="-150" as="targetPoint" />
          </mxGeometry>
        </mxCell>
        <mxCell id="4hKXPCZT20WKyfrfMZu--58" style="rounded=0;orthogonalLoop=1;jettySize=auto;html=1;exitX=0.5;exitY=1;exitDx=0;exitDy=0;edgeStyle=orthogonalEdgeStyle;endArrow=none;endFill=0;entryX=0;entryY=0.5;entryDx=0;entryDy=0;" parent="1" source="Genre" target="8_e8Rs1IxtEM6W6Zb1K5-6" edge="1">
          <mxGeometry relative="1" as="geometry" />
        </mxCell>
        <mxCell id="4hKXPCZT20WKyfrfMZu--63" value="&lt;font style=&quot;font-size: 18px;&quot;&gt;(1,1)&lt;/font&gt;" style="text;html=1;align=center;verticalAlign=middle;whiteSpace=wrap;rounded=0;" parent="1" vertex="1">
          <mxGeometry x="-50" y="-492.5" width="60" height="30" as="geometry" />
        </mxCell>
        <mxCell id="4hKXPCZT20WKyfrfMZu--65" style="rounded=0;orthogonalLoop=1;jettySize=auto;html=1;exitX=0.5;exitY=1;exitDx=0;exitDy=0;endArrow=none;endFill=0;entryX=0;entryY=0.5;entryDx=0;entryDy=0;" parent="1" source="4hKXPCZT20WKyfrfMZu--12" target="8_e8Rs1IxtEM6W6Zb1K5-5" edge="1">
          <mxGeometry relative="1" as="geometry">
            <mxPoint x="170" y="-550" as="targetPoint" />
          </mxGeometry>
        </mxCell>
        <mxCell id="4hKXPCZT20WKyfrfMZu--66" value="&lt;font style=&quot;font-size: 18px;&quot;&gt;(0,N)&lt;/font&gt;" style="text;html=1;align=center;verticalAlign=middle;whiteSpace=wrap;rounded=0;" parent="1" vertex="1">
          <mxGeometry x="340" y="-502" width="60" height="30" as="geometry" />
        </mxCell>
        <mxCell id="8_e8Rs1IxtEM6W6Zb1K5-11" style="edgeStyle=orthogonalEdgeStyle;rounded=0;orthogonalLoop=1;jettySize=auto;html=1;exitX=0.5;exitY=1;exitDx=0;exitDy=0;entryX=0.5;entryY=0;entryDx=0;entryDy=0;endArrow=none;endFill=0;" parent="1" source="4hKXPCZT20WKyfrfMZu--1" target="8_e8Rs1IxtEM6W6Zb1K5-1" edge="1">
          <mxGeometry relative="1" as="geometry" />
        </mxCell>
        <mxCell id="4hKXPCZT20WKyfrfMZu--1" value="&lt;font style=&quot;font-size: 18px;&quot;&gt;Material&lt;/font&gt;" style="whiteSpace=wrap;html=1;" parent="1" vertex="1">
          <mxGeometry x="280" y="-420" width="120" height="60" as="geometry" />
        </mxCell>
        <mxCell id="4hKXPCZT20WKyfrfMZu--2" value="&lt;u&gt;material_id&lt;/u&gt;" style="ellipse;whiteSpace=wrap;html=1;" parent="1" vertex="1">
          <mxGeometry x="230" y="-490" width="80" height="40" as="geometry" />
        </mxCell>
        <mxCell id="4hKXPCZT20WKyfrfMZu--3" value="publication_date" style="ellipse;whiteSpace=wrap;html=1;" parent="1" vertex="1">
          <mxGeometry x="450" y="-392.5" width="100" height="50" as="geometry" />
        </mxCell>
        <mxCell id="4hKXPCZT20WKyfrfMZu--4" value="title" style="ellipse;whiteSpace=wrap;html=1;" parent="1" vertex="1">
          <mxGeometry x="430" y="-442.5" width="80" height="40" as="geometry" />
        </mxCell>
        <mxCell id="4hKXPCZT20WKyfrfMZu--5" value="" style="endArrow=none;html=1;rounded=0;entryX=0.25;entryY=0;entryDx=0;entryDy=0;exitX=0.5;exitY=1;exitDx=0;exitDy=0;" parent="1" source="4hKXPCZT20WKyfrfMZu--2" target="4hKXPCZT20WKyfrfMZu--1" edge="1">
          <mxGeometry width="50" height="50" relative="1" as="geometry">
            <mxPoint x="520" y="-120" as="sourcePoint" />
            <mxPoint x="570" y="-170" as="targetPoint" />
          </mxGeometry>
        </mxCell>
        <mxCell id="4hKXPCZT20WKyfrfMZu--6" value="" style="endArrow=none;html=1;rounded=0;entryX=1;entryY=1;entryDx=0;entryDy=0;exitX=0;exitY=0.5;exitDx=0;exitDy=0;" parent="1" source="4hKXPCZT20WKyfrfMZu--3" target="4hKXPCZT20WKyfrfMZu--1" edge="1">
          <mxGeometry width="50" height="50" relative="1" as="geometry">
            <mxPoint x="570" y="-390" as="sourcePoint" />
            <mxPoint x="630" y="-430" as="targetPoint" />
          </mxGeometry>
        </mxCell>
        <mxCell id="4hKXPCZT20WKyfrfMZu--7" value="" style="endArrow=none;html=1;rounded=0;entryX=0;entryY=0.5;entryDx=0;entryDy=0;exitX=1;exitY=0.25;exitDx=0;exitDy=0;" parent="1" source="4hKXPCZT20WKyfrfMZu--1" target="4hKXPCZT20WKyfrfMZu--4" edge="1">
          <mxGeometry width="50" height="50" relative="1" as="geometry">
            <mxPoint x="520" y="-120" as="sourcePoint" />
            <mxPoint x="570" y="-170" as="targetPoint" />
          </mxGeometry>
        </mxCell>
        <mxCell id="4hKXPCZT20WKyfrfMZu--8" value="&lt;u&gt;genre_id&lt;/u&gt;" style="ellipse;whiteSpace=wrap;html=1;" parent="1" vertex="1">
          <mxGeometry x="390" y="-350" width="80" height="40" as="geometry" />
        </mxCell>
        <mxCell id="4hKXPCZT20WKyfrfMZu--9" value="&lt;u&gt;catalog_id&lt;/u&gt;" style="ellipse;whiteSpace=wrap;html=1;" parent="1" vertex="1">
          <mxGeometry x="180" y="-450" width="80" height="40" as="geometry" />
        </mxCell>
        <mxCell id="4hKXPCZT20WKyfrfMZu--10" value="" style="endArrow=none;html=1;rounded=0;entryX=0.675;entryY=1.017;entryDx=0;entryDy=0;exitX=0;exitY=0.5;exitDx=0;exitDy=0;entryPerimeter=0;" parent="1" source="4hKXPCZT20WKyfrfMZu--8" target="4hKXPCZT20WKyfrfMZu--1" edge="1">
          <mxGeometry width="50" height="50" relative="1" as="geometry">
            <mxPoint x="450" y="-430" as="sourcePoint" />
            <mxPoint x="380" y="-410" as="targetPoint" />
          </mxGeometry>
        </mxCell>
        <mxCell id="4hKXPCZT20WKyfrfMZu--11" value="" style="endArrow=none;html=1;rounded=0;entryX=1;entryY=1;entryDx=0;entryDy=0;exitX=0;exitY=0.25;exitDx=0;exitDy=0;" parent="1" source="4hKXPCZT20WKyfrfMZu--1" target="4hKXPCZT20WKyfrfMZu--9" edge="1">
          <mxGeometry width="50" height="50" relative="1" as="geometry">
            <mxPoint x="460" y="-420" as="sourcePoint" />
            <mxPoint x="390" y="-400" as="targetPoint" />
          </mxGeometry>
        </mxCell>
        <mxCell id="8_e8Rs1IxtEM6W6Zb1K5-12" style="edgeStyle=orthogonalEdgeStyle;rounded=0;orthogonalLoop=1;jettySize=auto;html=1;exitX=0.5;exitY=1;exitDx=0;exitDy=0;endArrow=none;endFill=0;" parent="1" source="8_e8Rs1IxtEM6W6Zb1K5-1" target="Borrow" edge="1">
          <mxGeometry relative="1" as="geometry" />
        </mxCell>
        <mxCell id="8_e8Rs1IxtEM6W6Zb1K5-1" value="&lt;span style=&quot;font-size: 14px;&quot;&gt;Borrowed&lt;/span&gt;" style="rhombus;whiteSpace=wrap;html=1;" parent="1" vertex="1">
          <mxGeometry x="280" y="-300" width="120" height="95" as="geometry" />
        </mxCell>
        <mxCell id="8_e8Rs1IxtEM6W6Zb1K5-14" style="edgeStyle=orthogonalEdgeStyle;rounded=0;orthogonalLoop=1;jettySize=auto;html=1;exitX=1;exitY=0.5;exitDx=0;exitDy=0;entryX=0;entryY=0.5;entryDx=0;entryDy=0;endArrow=none;endFill=0;" parent="1" source="8_e8Rs1IxtEM6W6Zb1K5-2" target="Member" edge="1">
          <mxGeometry relative="1" as="geometry" />
        </mxCell>
        <mxCell id="8_e8Rs1IxtEM6W6Zb1K5-15" style="edgeStyle=orthogonalEdgeStyle;rounded=0;orthogonalLoop=1;jettySize=auto;html=1;exitX=0;exitY=0.5;exitDx=0;exitDy=0;entryX=1;entryY=0.5;entryDx=0;entryDy=0;endArrow=none;endFill=0;" parent="1" source="8_e8Rs1IxtEM6W6Zb1K5-2" target="Borrow" edge="1">
          <mxGeometry relative="1" as="geometry" />
        </mxCell>
        <mxCell id="8_e8Rs1IxtEM6W6Zb1K5-2" value="&lt;span style=&quot;font-size: 14px;&quot;&gt;Borroed By&lt;/span&gt;" style="rhombus;whiteSpace=wrap;html=1;" parent="1" vertex="1">
          <mxGeometry x="575" y="-177.5" width="120" height="95" as="geometry" />
        </mxCell>
        <mxCell id="8_e8Rs1IxtEM6W6Zb1K5-19" style="rounded=0;orthogonalLoop=1;jettySize=auto;html=1;exitX=0;exitY=1;exitDx=0;exitDy=0;entryX=0.75;entryY=0;entryDx=0;entryDy=0;endArrow=none;endFill=0;" parent="1" source="8_e8Rs1IxtEM6W6Zb1K5-3" target="4hKXPCZT20WKyfrfMZu--1" edge="1">
          <mxGeometry relative="1" as="geometry" />
        </mxCell>
        <mxCell id="8_e8Rs1IxtEM6W6Zb1K5-3" value="&lt;span style=&quot;font-size: 14px;&quot;&gt;Authored&lt;/span&gt;" style="rhombus;whiteSpace=wrap;html=1;" parent="1" vertex="1">
          <mxGeometry x="455" y="-597" width="120" height="95" as="geometry" />
        </mxCell>
        <mxCell id="8_e8Rs1IxtEM6W6Zb1K5-10" style="edgeStyle=orthogonalEdgeStyle;rounded=0;orthogonalLoop=1;jettySize=auto;html=1;exitX=1;exitY=0.5;exitDx=0;exitDy=0;entryX=0;entryY=0.5;entryDx=0;entryDy=0;endArrow=none;endFill=0;" parent="1" source="8_e8Rs1IxtEM6W6Zb1K5-4" target="Staff" edge="1">
          <mxGeometry relative="1" as="geometry" />
        </mxCell>
        <mxCell id="8_e8Rs1IxtEM6W6Zb1K5-16" style="rounded=0;orthogonalLoop=1;jettySize=auto;html=1;exitX=0;exitY=0.5;exitDx=0;exitDy=0;entryX=1;entryY=0;entryDx=0;entryDy=0;endArrow=none;endFill=0;" parent="1" source="8_e8Rs1IxtEM6W6Zb1K5-4" target="Borrow" edge="1">
          <mxGeometry relative="1" as="geometry" />
        </mxCell>
        <mxCell id="8_e8Rs1IxtEM6W6Zb1K5-4" value="&lt;span style=&quot;font-size: 14px;&quot;&gt;Processed&lt;/span&gt;" style="rhombus;whiteSpace=wrap;html=1;" parent="1" vertex="1">
          <mxGeometry x="540" y="-350" width="100" height="80" as="geometry" />
        </mxCell>
        <mxCell id="8_e8Rs1IxtEM6W6Zb1K5-5" value="&lt;font style=&quot;font-size: 14px;&quot;&gt;Cataloged In&lt;/font&gt;" style="rhombus;whiteSpace=wrap;html=1;" parent="1" vertex="1">
          <mxGeometry x="280" y="-600" width="120" height="95" as="geometry" />
        </mxCell>
        <mxCell id="8_e8Rs1IxtEM6W6Zb1K5-7" style="edgeStyle=orthogonalEdgeStyle;rounded=0;orthogonalLoop=1;jettySize=auto;html=1;exitX=1;exitY=0.5;exitDx=0;exitDy=0;entryX=0;entryY=0.5;entryDx=0;entryDy=0;endArrow=none;endFill=0;" parent="1" source="8_e8Rs1IxtEM6W6Zb1K5-6" target="4hKXPCZT20WKyfrfMZu--1" edge="1">
          <mxGeometry relative="1" as="geometry" />
        </mxCell>
        <mxCell id="8_e8Rs1IxtEM6W6Zb1K5-6" value="&lt;font style=&quot;font-size: 14px;&quot;&gt;Categorized As&lt;/font&gt;" style="rhombus;whiteSpace=wrap;html=1;" parent="1" vertex="1">
          <mxGeometry x="10" y="-437.5" width="120" height="95" as="geometry" />
        </mxCell>
        <mxCell id="8_e8Rs1IxtEM6W6Zb1K5-8" style="edgeStyle=orthogonalEdgeStyle;rounded=0;orthogonalLoop=1;jettySize=auto;html=1;exitX=0.5;exitY=1;exitDx=0;exitDy=0;endArrow=none;endFill=0;entryX=0.5;entryY=0;entryDx=0;entryDy=0;" parent="1" source="8_e8Rs1IxtEM6W6Zb1K5-5" target="4hKXPCZT20WKyfrfMZu--1" edge="1">
          <mxGeometry relative="1" as="geometry">
            <mxPoint x="320" y="-410" as="targetPoint" />
          </mxGeometry>
        </mxCell>
        <mxCell id="8_e8Rs1IxtEM6W6Zb1K5-18" style="rounded=0;orthogonalLoop=1;jettySize=auto;html=1;exitX=0.431;exitY=1.026;exitDx=0;exitDy=0;entryX=1;entryY=0;entryDx=0;entryDy=0;endArrow=none;endFill=0;exitPerimeter=0;" parent="1" source="8_e8Rs1IxtEM6W6Zb1K5-40" target="8_e8Rs1IxtEM6W6Zb1K5-3" edge="1">
          <mxGeometry relative="1" as="geometry" />
        </mxCell>
        <mxCell id="8_e8Rs1IxtEM6W6Zb1K5-22" style="rounded=0;orthogonalLoop=1;jettySize=auto;html=1;exitX=1;exitY=0.5;exitDx=0;exitDy=0;entryX=0;entryY=0;entryDx=0;entryDy=0;endArrow=none;endFill=0;" parent="1" source="8_e8Rs1IxtEM6W6Zb1K5-20" target="Author" edge="1">
          <mxGeometry relative="1" as="geometry" />
        </mxCell>
        <mxCell id="8_e8Rs1IxtEM6W6Zb1K5-20" value="&lt;span style=&quot;font-size: 14px;&quot;&gt;Contributor&lt;/span&gt;" style="rhombus;whiteSpace=wrap;html=1;" parent="1" vertex="1">
          <mxGeometry x="740" y="-620" width="120" height="95" as="geometry" />
        </mxCell>
        <mxCell id="8_e8Rs1IxtEM6W6Zb1K5-21" style="rounded=0;orthogonalLoop=1;jettySize=auto;html=1;exitX=1;exitY=1;exitDx=0;exitDy=0;entryX=0;entryY=0;entryDx=0;entryDy=0;endArrow=none;endFill=0;" parent="1" source="8_e8Rs1IxtEM6W6Zb1K5-40" target="8_e8Rs1IxtEM6W6Zb1K5-20" edge="1">
          <mxGeometry relative="1" as="geometry" />
        </mxCell>
        <mxCell id="8_e8Rs1IxtEM6W6Zb1K5-23" value="&lt;font style=&quot;font-size: 18px;&quot;&gt;(0,N)&lt;/font&gt;" style="text;html=1;align=center;verticalAlign=middle;whiteSpace=wrap;rounded=0;" parent="1" vertex="1">
          <mxGeometry x="140" y="-390" width="60" height="30" as="geometry" />
        </mxCell>
        <mxCell id="8_e8Rs1IxtEM6W6Zb1K5-24" value="&lt;font style=&quot;font-size: 18px;&quot;&gt;(1,1)&lt;/font&gt;" style="text;html=1;align=center;verticalAlign=middle;whiteSpace=wrap;rounded=0;" parent="1" vertex="1">
          <mxGeometry x="190" y="-580" width="60" height="30" as="geometry" />
        </mxCell>
        <mxCell id="8_e8Rs1IxtEM6W6Zb1K5-25" value="&lt;font style=&quot;font-size: 18px;&quot;&gt;(1,N)&lt;/font&gt;" style="text;html=1;align=center;verticalAlign=middle;whiteSpace=wrap;rounded=0;" parent="1" vertex="1">
          <mxGeometry x="440" y="-492.5" width="60" height="30" as="geometry" />
        </mxCell>
        <mxCell id="8_e8Rs1IxtEM6W6Zb1K5-26" value="&lt;font style=&quot;font-size: 18px;&quot;&gt;(1,N)&lt;/font&gt;" style="text;html=1;align=center;verticalAlign=middle;whiteSpace=wrap;rounded=0;" parent="1" vertex="1">
          <mxGeometry x="590" y="-620" width="60" height="30" as="geometry" />
        </mxCell>
        <mxCell id="8_e8Rs1IxtEM6W6Zb1K5-27" value="&lt;font style=&quot;font-size: 18px;&quot;&gt;(1,1)&lt;/font&gt;" style="text;html=1;align=center;verticalAlign=middle;whiteSpace=wrap;rounded=0;" parent="1" vertex="1">
          <mxGeometry x="280" y="-200" width="60" height="30" as="geometry" />
        </mxCell>
        <mxCell id="8_e8Rs1IxtEM6W6Zb1K5-28" value="&lt;font style=&quot;font-size: 18px;&quot;&gt;(0,N)&lt;/font&gt;" style="text;html=1;align=center;verticalAlign=middle;whiteSpace=wrap;rounded=0;" parent="1" vertex="1">
          <mxGeometry x="280" y="-345" width="60" height="30" as="geometry" />
        </mxCell>
        <mxCell id="8_e8Rs1IxtEM6W6Zb1K5-29" value="&lt;font style=&quot;font-size: 18px;&quot;&gt;(0,N)&lt;/font&gt;" style="text;html=1;align=center;verticalAlign=middle;whiteSpace=wrap;rounded=0;" parent="1" vertex="1">
          <mxGeometry x="680" y="-345" width="60" height="30" as="geometry" />
        </mxCell>
        <mxCell id="8_e8Rs1IxtEM6W6Zb1K5-30" value="&lt;font style=&quot;font-size: 18px;&quot;&gt;(1,1)&lt;/font&gt;" style="text;html=1;align=center;verticalAlign=middle;whiteSpace=wrap;rounded=0;" parent="1" vertex="1">
          <mxGeometry x="470" y="-240" width="60" height="30" as="geometry" />
        </mxCell>
        <mxCell id="8_e8Rs1IxtEM6W6Zb1K5-33" value="&lt;font style=&quot;font-size: 18px;&quot;&gt;(0,N)&lt;/font&gt;" style="text;html=1;align=center;verticalAlign=middle;whiteSpace=wrap;rounded=0;" parent="1" vertex="1">
          <mxGeometry x="865" y="-587.5" width="60" height="30" as="geometry" />
        </mxCell>
        <mxCell id="8_e8Rs1IxtEM6W6Zb1K5-34" value="&lt;font style=&quot;font-size: 18px;&quot;&gt;(1,1)&lt;/font&gt;" style="text;html=1;align=center;verticalAlign=middle;whiteSpace=wrap;rounded=0;" parent="1" vertex="1">
          <mxGeometry x="695" y="-620" width="60" height="30" as="geometry" />
        </mxCell>
        <mxCell id="Borrow" value="&lt;font style=&quot;font-size: 18px;&quot;&gt;Borrow&lt;/font&gt;" style="whiteSpace=wrap;html=1;" parent="1" vertex="1">
          <mxGeometry x="280" y="-160" width="120" height="60" as="geometry" />
        </mxCell>
        <mxCell id="borrow_id_borrow" value="borrow_id" style="ellipse;whiteSpace=wrap;html=1;" parent="1" vertex="1">
          <mxGeometry x="430" y="-40" width="80" height="40" as="geometry" />
        </mxCell>
        <mxCell id="material_id_borrow" value="&lt;u&gt;material_id&lt;/u&gt;" style="ellipse;whiteSpace=wrap;html=1;" parent="1" vertex="1">
          <mxGeometry x="190" y="-30" width="80" height="40" as="geometry" />
        </mxCell>
        <mxCell id="member_id_borrow" value="&lt;u&gt;member_id&lt;/u&gt;" style="ellipse;whiteSpace=wrap;html=1;" parent="1" vertex="1">
          <mxGeometry x="510" y="-30" width="80" height="40" as="geometry" />
        </mxCell>
        <mxCell id="staff_id_borrow" value="staff_id" style="ellipse;whiteSpace=wrap;html=1;" parent="1" vertex="1">
          <mxGeometry x="350" y="-20" width="80" height="40" as="geometry" />
        </mxCell>
        <mxCell id="borrow_date_borrow" value="borrow_date" style="ellipse;whiteSpace=wrap;html=1;" parent="1" vertex="1">
          <mxGeometry x="270" y="-20" width="80" height="40" as="geometry" />
        </mxCell>
        <mxCell id="due_date_borrow" value="due_date" style="ellipse;whiteSpace=wrap;html=1;" parent="1" vertex="1">
          <mxGeometry x="90" y="-100" width="80" height="40" as="geometry" />
        </mxCell>
        <mxCell id="return_date_borrow" value="return_date" style="ellipse;whiteSpace=wrap;html=1;" parent="1" vertex="1">
          <mxGeometry x="120" y="-60" width="80" height="40" as="geometry" />
        </mxCell>
        <mxCell id="4hKXPCZT20WKyfrfMZu--42" value="" style="endArrow=none;html=1;rounded=0;entryX=0;entryY=0.75;entryDx=0;entryDy=0;exitX=1;exitY=0.5;exitDx=0;exitDy=0;" parent="1" source="due_date_borrow" target="Borrow" edge="1">
          <mxGeometry width="50" height="50" relative="1" as="geometry">
            <mxPoint x="230" y="-100" as="sourcePoint" />
            <mxPoint x="280" y="-150" as="targetPoint" />
          </mxGeometry>
        </mxCell>
        <mxCell id="4hKXPCZT20WKyfrfMZu--43" value="" style="endArrow=none;html=1;rounded=0;entryX=0;entryY=1;entryDx=0;entryDy=0;exitX=1;exitY=0;exitDx=0;exitDy=0;" parent="1" source="return_date_borrow" target="Borrow" edge="1">
          <mxGeometry width="50" height="50" relative="1" as="geometry">
            <mxPoint x="230" y="-100" as="sourcePoint" />
            <mxPoint x="280" y="-150" as="targetPoint" />
          </mxGeometry>
        </mxCell>
        <mxCell id="4hKXPCZT20WKyfrfMZu--44" value="" style="endArrow=none;html=1;rounded=0;entryX=0.25;entryY=1;entryDx=0;entryDy=0;exitX=0.5;exitY=0;exitDx=0;exitDy=0;" parent="1" source="material_id_borrow" target="Borrow" edge="1">
          <mxGeometry width="50" height="50" relative="1" as="geometry">
            <mxPoint x="230" y="-100" as="sourcePoint" />
            <mxPoint x="280" y="-150" as="targetPoint" />
          </mxGeometry>
        </mxCell>
        <mxCell id="4hKXPCZT20WKyfrfMZu--45" value="" style="endArrow=none;html=1;rounded=0;entryX=0.5;entryY=1;entryDx=0;entryDy=0;exitX=0.5;exitY=0;exitDx=0;exitDy=0;" parent="1" source="borrow_date_borrow" target="Borrow" edge="1">
          <mxGeometry width="50" height="50" relative="1" as="geometry">
            <mxPoint x="230" y="-100" as="sourcePoint" />
            <mxPoint x="280" y="-150" as="targetPoint" />
          </mxGeometry>
        </mxCell>
        <mxCell id="4hKXPCZT20WKyfrfMZu--46" value="" style="endArrow=none;html=1;rounded=0;entryX=0.75;entryY=1;entryDx=0;entryDy=0;exitX=0.5;exitY=0;exitDx=0;exitDy=0;" parent="1" source="staff_id_borrow" target="Borrow" edge="1">
          <mxGeometry width="50" height="50" relative="1" as="geometry">
            <mxPoint x="230" y="-100" as="sourcePoint" />
            <mxPoint x="280" y="-150" as="targetPoint" />
          </mxGeometry>
        </mxCell>
        <mxCell id="4hKXPCZT20WKyfrfMZu--47" value="" style="endArrow=none;html=1;rounded=0;entryX=1;entryY=1;entryDx=0;entryDy=0;exitX=0.5;exitY=0;exitDx=0;exitDy=0;" parent="1" source="borrow_id_borrow" target="Borrow" edge="1">
          <mxGeometry width="50" height="50" relative="1" as="geometry">
            <mxPoint x="230" y="-100" as="sourcePoint" />
            <mxPoint x="280" y="-150" as="targetPoint" />
          </mxGeometry>
        </mxCell>
        <mxCell id="4hKXPCZT20WKyfrfMZu--48" value="" style="endArrow=none;html=1;rounded=0;entryX=1;entryY=0.75;entryDx=0;entryDy=0;exitX=0.5;exitY=0;exitDx=0;exitDy=0;" parent="1" source="member_id_borrow" target="Borrow" edge="1">
          <mxGeometry width="50" height="50" relative="1" as="geometry">
            <mxPoint x="230" y="-100" as="sourcePoint" />
            <mxPoint x="280" y="-150" as="targetPoint" />
          </mxGeometry>
        </mxCell>
        <mxCell id="8_e8Rs1IxtEM6W6Zb1K5-32" value="&lt;font style=&quot;font-size: 18px;&quot;&gt;(1,1)&lt;/font&gt;" style="text;html=1;align=center;verticalAlign=middle;whiteSpace=wrap;rounded=0;" parent="1" vertex="1">
          <mxGeometry x="470" y="-160" width="60" height="30" as="geometry" />
        </mxCell>
        <mxCell id="8_e8Rs1IxtEM6W6Zb1K5-36" value="" style="rounded=0;whiteSpace=wrap;html=1;fillColor=none;" parent="1" vertex="1">
          <mxGeometry x="285" y="-155" width="110" height="50" as="geometry" />
        </mxCell>
        <mxCell id="8_e8Rs1IxtEM6W6Zb1K5-37" value="" style="rhombus;whiteSpace=wrap;html=1;fillColor=none;" parent="1" vertex="1">
          <mxGeometry x="290" y="-290" width="100" height="80" as="geometry" />
        </mxCell>
        <mxCell id="8_e8Rs1IxtEM6W6Zb1K5-38" value="" style="rhombus;whiteSpace=wrap;html=1;fillColor=none;" parent="1" vertex="1">
          <mxGeometry x="590" y="-170" width="90" height="80" as="geometry" />
        </mxCell>
        <mxCell id="authorship_id_authorship" value="authorship_id" style="ellipse;whiteSpace=wrap;html=1;container=0;" parent="1" vertex="1">
          <mxGeometry x="520" y="-775" width="80" height="40" as="geometry" />
        </mxCell>
        <mxCell id="4hKXPCZT20WKyfrfMZu--23" value="" style="endArrow=none;html=1;rounded=0;entryX=0.209;entryY=-0.014;entryDx=0;entryDy=0;exitX=0.5;exitY=1;exitDx=0;exitDy=0;entryPerimeter=0;" parent="1" source="authorship_id_authorship" target="8_e8Rs1IxtEM6W6Zb1K5-40" edge="1">
          <mxGeometry width="50" height="50" relative="1" as="geometry">
            <mxPoint x="1010" y="-475" as="sourcePoint" />
            <mxPoint x="1060" y="-525" as="targetPoint" />
          </mxGeometry>
        </mxCell>
        <mxCell id="author_id_authorship" value="&lt;u&gt;author_id&lt;/u&gt;" style="ellipse;whiteSpace=wrap;html=1;container=0;" parent="1" vertex="1">
          <mxGeometry x="610" y="-775" width="80" height="40" as="geometry" />
        </mxCell>
        <mxCell id="4hKXPCZT20WKyfrfMZu--24" value="" style="endArrow=none;html=1;rounded=0;entryX=0.5;entryY=0;entryDx=0;entryDy=0;exitX=0.413;exitY=0.998;exitDx=0;exitDy=0;exitPerimeter=0;" parent="1" source="author_id_authorship" target="8_e8Rs1IxtEM6W6Zb1K5-40" edge="1">
          <mxGeometry width="50" height="50" relative="1" as="geometry">
            <mxPoint x="642.3699999999999" y="-728.3" as="sourcePoint" />
            <mxPoint x="1060" y="-525" as="targetPoint" />
          </mxGeometry>
        </mxCell>
        <mxCell id="material_id_authorship" value="&lt;u&gt;material_id&lt;/u&gt;" style="ellipse;whiteSpace=wrap;html=1;container=0;" parent="1" vertex="1">
          <mxGeometry x="700" y="-775" width="80" height="40" as="geometry" />
        </mxCell>
        <mxCell id="4hKXPCZT20WKyfrfMZu--22" value="" style="endArrow=none;html=1;rounded=0;entryX=1;entryY=0;entryDx=0;entryDy=0;" parent="1" source="material_id_authorship" target="8_e8Rs1IxtEM6W6Zb1K5-40" edge="1">
          <mxGeometry width="50" height="50" relative="1" as="geometry">
            <mxPoint x="1010" y="-475" as="sourcePoint" />
            <mxPoint x="1060" y="-525" as="targetPoint" />
          </mxGeometry>
        </mxCell>
        <mxCell id="Authorship" value="&lt;font style=&quot;font-size: 18px;&quot;&gt;Authorship&lt;/font&gt;" style="whiteSpace=wrap;html=1;container=0;" parent="1" vertex="1">
          <mxGeometry x="565" y="-705" width="150" height="60" as="geometry" />
        </mxCell>
        <mxCell id="8_e8Rs1IxtEM6W6Zb1K5-40" value="" style="rounded=0;whiteSpace=wrap;html=1;fillColor=none;" parent="1" vertex="1">
          <mxGeometry x="560" y="-710" width="160" height="70" as="geometry" />
        </mxCell>
        <mxCell id="8_e8Rs1IxtEM6W6Zb1K5-41" value="" style="rhombus;whiteSpace=wrap;html=1;fillColor=none;" parent="1" vertex="1">
          <mxGeometry x="470" y="-589.5" width="90" height="80" as="geometry" />
        </mxCell>
        <mxCell id="8_e8Rs1IxtEM6W6Zb1K5-42" value="" style="rhombus;whiteSpace=wrap;html=1;fillColor=none;" parent="1" vertex="1">
          <mxGeometry x="750" y="-612.5" width="100" height="80" as="geometry" />
        </mxCell>
        <mxCell id="8_e8Rs1IxtEM6W6Zb1K5-43" value="" style="shape=image;imageAspect=0;aspect=fixed;verticalLabelPosition=bottom;verticalAlign=top;image=data:image/png,iVBORw0KGgoAAAANSUhEUgAAAFYAAAALCAYAAADlRnreAAAABHNCSVQICAgIfAhkiAAAABl0RVh0U29mdHdhcmUAZ25vbWUtc2NyZWVuc2hvdO8Dvz4AAAJ4SURBVEiJ7ZbPThNRFMZ/t9MWQgth0aQ0RIg4XbSx/LELXoDwArKQl0BM1KVA4B0kuJbgS0iCbpAMjRkyXYhF6kKGStJApgND6biA0l4KdUwkJNpvM5Nz7nxz7ne/e+4Vtm271KG9vR0vOD4+9jTuf+XzeRrdwh+jJewtQbiuK7WCu95C/wqfvz5omia6rnNycgLulS9E7TUUCpFOp+ns7GwgtiwLwzAoFosAOI5zbQF+xY8aV4nFYvh88sYpl8vkcjny+TxX1l3iE0IQjUaJx+MEg0FpnOu6FAoFsoaBc3p6bQ1VvnAoRCKZpKurqyFv2zaGYWDbdkMt0nz8flRVJRKJIISoCXt4eMjc7Bwf1tYol8sIQFzwuELWORAI8GRykqmnU4TD4ct4pVJh+e0yb5aWODo6urGIqiiDQ4O8mplhYGBAymmaxuzMLN92dppyAEQiEZ6/fMH4+DhC1FbfNE0W5udZfb9KpVJpyhEMBnk8McH0s2lpgRzH4d3KCouvF8/N1gQ+n4+h4SHmFxbo7e2tCWuaJp8zGWyrVJv8xbNeVFec/3B9fZ1isSgJe3Z2hqZpHBwcNC2iiu0v23zP5yVhXdcla2TJ7+7e6PZ67O/vs6XrjI2NoSjKZXzvxx66vuVpqzuOQyazSalUkoS1LAtN035rkiqyRpadrzlZ2Gg0yvDwCB8vHHsTXAH+QIDR0VG6u7ulnKIopNNpNj0UI4RAjavc6+triCeSCfr6+z079mEq1dBOemI9pFIP+VkoeHLsyMgjOjo6pHi15W182vDk2EQywf0H5yaRDq+77LH1h8Pf6LFtbW132mNbt4Jb4mvdY28JvwB672LRcaoc4wAAAABJRU5ErkJggg==;" parent="1" vertex="1">
          <mxGeometry x="530" y="-750" width="55" height="7.03" as="geometry" />
        </mxCell>
        <mxCell id="8_e8Rs1IxtEM6W6Zb1K5-44" value="" style="shape=image;imageAspect=0;aspect=fixed;verticalLabelPosition=bottom;verticalAlign=top;image=data:image/png,iVBORw0KGgoAAAANSUhEUgAAAFYAAAALCAYAAADlRnreAAAABHNCSVQICAgIfAhkiAAAABl0RVh0U29mdHdhcmUAZ25vbWUtc2NyZWVuc2hvdO8Dvz4AAAJ4SURBVEiJ7ZbPThNRFMZ/t9MWQgth0aQ0RIg4XbSx/LELXoDwArKQl0BM1KVA4B0kuJbgS0iCbpAMjRkyXYhF6kKGStJApgND6biA0l4KdUwkJNpvM5Nz7nxz7ne/e+4Vtm271KG9vR0vOD4+9jTuf+XzeRrdwh+jJewtQbiuK7WCu95C/wqfvz5omia6rnNycgLulS9E7TUUCpFOp+ns7GwgtiwLwzAoFosAOI5zbQF+xY8aV4nFYvh88sYpl8vkcjny+TxX1l3iE0IQjUaJx+MEg0FpnOu6FAoFsoaBc3p6bQ1VvnAoRCKZpKurqyFv2zaGYWDbdkMt0nz8flRVJRKJIISoCXt4eMjc7Bwf1tYol8sIQFzwuELWORAI8GRykqmnU4TD4ct4pVJh+e0yb5aWODo6urGIqiiDQ4O8mplhYGBAymmaxuzMLN92dppyAEQiEZ6/fMH4+DhC1FbfNE0W5udZfb9KpVJpyhEMBnk8McH0s2lpgRzH4d3KCouvF8/N1gQ+n4+h4SHmFxbo7e2tCWuaJp8zGWyrVJv8xbNeVFec/3B9fZ1isSgJe3Z2hqZpHBwcNC2iiu0v23zP5yVhXdcla2TJ7+7e6PZ67O/vs6XrjI2NoSjKZXzvxx66vuVpqzuOQyazSalUkoS1LAtN035rkiqyRpadrzlZ2Gg0yvDwCB8vHHsTXAH+QIDR0VG6u7ulnKIopNNpNj0UI4RAjavc6+triCeSCfr6+z079mEq1dBOemI9pFIP+VkoeHLsyMgjOjo6pHi15W182vDk2EQywf0H5yaRDq+77LH1h8Pf6LFtbW132mNbt4Jb4mvdY28JvwB672LRcaoc4wAAAABJRU5ErkJggg==;" parent="1" vertex="1">
          <mxGeometry x="442.5" y="-13.519999999999973" width="55" height="7.03" as="geometry" />
        </mxCell>
        <mxCell id="C0MeX4ida6ETy6lf75hu-12" style="rounded=0;orthogonalLoop=1;jettySize=auto;html=1;entryX=1;entryY=0.5;entryDx=0;entryDy=0;endArrow=none;endFill=0;exitX=0;exitY=0.5;exitDx=0;exitDy=0;" edge="1" parent="1" source="C0MeX4ida6ETy6lf75hu-14" target="Member">
          <mxGeometry relative="1" as="geometry">
            <mxPoint x="1035" y="-144" as="sourcePoint" />
          </mxGeometry>
        </mxCell>
        <mxCell id="C0MeX4ida6ETy6lf75hu-11" value="&lt;font style=&quot;font-size: 18px;&quot;&gt;(0,N)&lt;/font&gt;" style="text;html=1;align=center;verticalAlign=middle;whiteSpace=wrap;rounded=0;" vertex="1" parent="1">
          <mxGeometry x="1029" y="-220" width="60" height="30" as="geometry" />
        </mxCell>
        <mxCell id="C0MeX4ida6ETy6lf75hu-13" value="" style="group" vertex="1" connectable="0" parent="1">
          <mxGeometry x="1176" y="-197" width="359" height="150" as="geometry" />
        </mxCell>
        <mxCell id="C0MeX4ida6ETy6lf75hu-2" value="&lt;span style=&quot;font-size: 18px;&quot;&gt;Membership&lt;/span&gt;" style="whiteSpace=wrap;html=1;" vertex="1" parent="C0MeX4ida6ETy6lf75hu-13">
          <mxGeometry x="90" width="120" height="60" as="geometry" />
        </mxCell>
        <mxCell id="C0MeX4ida6ETy6lf75hu-3" value="&lt;u&gt;member_id&lt;/u&gt;" style="ellipse;whiteSpace=wrap;html=1;" vertex="1" parent="C0MeX4ida6ETy6lf75hu-13">
          <mxGeometry x="160" y="110" width="80" height="40" as="geometry" />
        </mxCell>
        <mxCell id="C0MeX4ida6ETy6lf75hu-4" value="overdue_occurances" style="ellipse;whiteSpace=wrap;html=1;" vertex="1" parent="C0MeX4ida6ETy6lf75hu-13">
          <mxGeometry x="240" y="70" width="119" height="51" as="geometry" />
        </mxCell>
        <mxCell id="C0MeX4ida6ETy6lf75hu-5" value="status" style="ellipse;whiteSpace=wrap;html=1;" vertex="1" parent="C0MeX4ida6ETy6lf75hu-13">
          <mxGeometry y="70" width="80" height="40" as="geometry" />
        </mxCell>
        <mxCell id="C0MeX4ida6ETy6lf75hu-6" value="fee_paid" style="ellipse;whiteSpace=wrap;html=1;" vertex="1" parent="C0MeX4ida6ETy6lf75hu-13">
          <mxGeometry x="70" y="110" width="80" height="40" as="geometry" />
        </mxCell>
        <mxCell id="C0MeX4ida6ETy6lf75hu-7" value="" style="endArrow=none;html=1;rounded=0;entryX=0;entryY=1;entryDx=0;entryDy=0;exitX=1;exitY=0;exitDx=0;exitDy=0;" edge="1" parent="C0MeX4ida6ETy6lf75hu-13" source="C0MeX4ida6ETy6lf75hu-5" target="C0MeX4ida6ETy6lf75hu-2">
          <mxGeometry width="50" height="50" relative="1" as="geometry">
            <mxPoint x="130" y="90" as="sourcePoint" />
            <mxPoint x="180" y="40" as="targetPoint" />
          </mxGeometry>
        </mxCell>
        <mxCell id="C0MeX4ida6ETy6lf75hu-8" value="" style="endArrow=none;html=1;rounded=0;entryX=0.25;entryY=1;entryDx=0;entryDy=0;exitX=0.5;exitY=0;exitDx=0;exitDy=0;" edge="1" parent="C0MeX4ida6ETy6lf75hu-13" source="C0MeX4ida6ETy6lf75hu-6" target="C0MeX4ida6ETy6lf75hu-2">
          <mxGeometry width="50" height="50" relative="1" as="geometry">
            <mxPoint x="130" y="90" as="sourcePoint" />
            <mxPoint x="180" y="40" as="targetPoint" />
          </mxGeometry>
        </mxCell>
        <mxCell id="C0MeX4ida6ETy6lf75hu-9" value="" style="endArrow=none;html=1;rounded=0;entryX=0.75;entryY=1;entryDx=0;entryDy=0;exitX=0.5;exitY=0;exitDx=0;exitDy=0;" edge="1" parent="C0MeX4ida6ETy6lf75hu-13" source="C0MeX4ida6ETy6lf75hu-3" target="C0MeX4ida6ETy6lf75hu-2">
          <mxGeometry width="50" height="50" relative="1" as="geometry">
            <mxPoint x="130" y="90" as="sourcePoint" />
            <mxPoint x="180" y="40" as="targetPoint" />
          </mxGeometry>
        </mxCell>
        <mxCell id="C0MeX4ida6ETy6lf75hu-10" value="" style="endArrow=none;html=1;rounded=0;entryX=1;entryY=1;entryDx=0;entryDy=0;exitX=0;exitY=0.5;exitDx=0;exitDy=0;" edge="1" parent="C0MeX4ida6ETy6lf75hu-13" source="C0MeX4ida6ETy6lf75hu-4" target="C0MeX4ida6ETy6lf75hu-2">
          <mxGeometry width="50" height="50" relative="1" as="geometry">
            <mxPoint x="130" y="90" as="sourcePoint" />
            <mxPoint x="180" y="40" as="targetPoint" />
          </mxGeometry>
        </mxCell>
        <mxCell id="C0MeX4ida6ETy6lf75hu-16" value="&lt;font style=&quot;font-size: 18px;&quot;&gt;(1,1)&lt;/font&gt;" style="text;html=1;align=center;verticalAlign=middle;whiteSpace=wrap;rounded=0;" vertex="1" parent="C0MeX4ida6ETy6lf75hu-13">
          <mxGeometry x="-9" y="6" width="60" height="30" as="geometry" />
        </mxCell>
        <mxCell id="C0MeX4ida6ETy6lf75hu-14" value="&lt;span style=&quot;font-size: 14px;&quot;&gt;Has A&lt;/span&gt;" style="rhombus;whiteSpace=wrap;html=1;" vertex="1" parent="1">
          <mxGeometry x="1064" y="-185" width="100" height="80" as="geometry" />
        </mxCell>
        <mxCell id="C0MeX4ida6ETy6lf75hu-15" style="rounded=0;orthogonalLoop=1;jettySize=auto;html=1;entryX=1;entryY=0.5;entryDx=0;entryDy=0;endArrow=none;endFill=0;exitX=0;exitY=0.5;exitDx=0;exitDy=0;" edge="1" parent="1" source="C0MeX4ida6ETy6lf75hu-2" target="C0MeX4ida6ETy6lf75hu-14">
          <mxGeometry relative="1" as="geometry">
            <mxPoint x="1071" y="-150" as="sourcePoint" />
            <mxPoint x="970" y="-120" as="targetPoint" />
          </mxGeometry>
        </mxCell>
      </root>
    </mxGraphModel>
  </diagram>
</mxfile>
